<svg width="17" height="18" viewBox="0 0 17 18" fill="none" xmlns="http://www.w3.org/2000/svg">
<path d="M8.64801 16.8002C12.8719 16.8002 16.296 13.3761 16.296 9.15222C16.296 4.92834 12.8719 1.50421 8.64801 1.50421C4.42413 1.50421 1 4.92834 1 9.15222C1 13.3761 4.42413 16.8002 8.64801 16.8002Z" stroke="#675DFF" stroke-width="1.24022" stroke-linecap="round" stroke-linejoin="round"/>
<path d="M8.80237 5.45807C8.83209 5.47066 8.8598 5.48751 8.8844 5.50787L8.94885 5.58014C8.98383 5.63287 9.0026 5.69456 9.00354 5.75787C9.00119 5.82473 8.98049 5.88915 8.94299 5.94342L8.89905 5.99518C8.83461 6.05751 8.7483 6.0914 8.65881 6.09186C8.62776 6.09048 8.59715 6.08604 8.56799 6.07623L8.48206 6.03229C8.45579 6.01362 8.43233 5.99107 8.41272 5.96588L8.36487 5.8819C8.35314 5.85149 8.34577 5.81933 8.34338 5.78717L8.35022 5.69147C8.35717 5.65991 8.36882 5.62957 8.3844 5.60162L8.44299 5.52545C8.46643 5.50277 8.49344 5.48357 8.52209 5.46881L8.61292 5.43756C8.64494 5.4316 8.67755 5.43014 8.70959 5.43365L8.80237 5.45807ZM8.47522 8.23053C8.47465 8.2083 8.47806 8.18635 8.48596 8.16608L8.52209 8.11041H8.52307L8.57776 8.0733L8.64221 8.06061H8.64905L8.71057 8.0733L8.76233 8.10944C8.77693 8.12467 8.78893 8.14305 8.79651 8.16315C8.80376 8.18256 8.80721 8.2035 8.80627 8.22467L8.8053 8.23346V12.6915C8.80524 12.713 8.79992 12.7349 8.79163 12.7549L8.75745 12.8077L8.70374 12.8438C8.68358 12.8522 8.66191 12.8565 8.64026 12.8565L8.57678 12.8438L8.52307 12.8077L8.48792 12.7549V12.754L8.47522 12.6915V8.23053Z" fill="#675DFF" stroke="#675DFF" stroke-width="0.826811"/>
</svg>
