<svg width="17" height="17" viewBox="0 0 17 17" fill="none" xmlns="http://www.w3.org/2000/svg">
<path fill-rule="evenodd" clip-rule="evenodd" d="M2.51656 1.90105C2.87651 1.18113 3.61232 0.726379 4.41721 0.726379H12.5827C13.3877 0.726379 14.1235 1.18114 14.4834 1.90105L16.7757 6.48551C16.9232 6.78055 17 7.10591 17 7.43581V14.1847C17 15.3583 16.0486 16.3097 14.875 16.3097H2.125C0.951396 16.3097 0 15.3583 0 14.1847V7.43581C0 7.10591 0.0768117 6.78055 0.224343 6.48551L2.51656 1.90105ZM15.5833 7.9306C15.3618 7.85231 15.1234 7.80971 14.875 7.80971H12.641C11.4366 7.80971 10.6513 8.81205 10.2622 9.54985C10.1696 9.72571 10.0532 9.88768 9.91582 10.0306C9.53539 10.4262 9.02549 10.643 8.5 10.643C7.97451 10.643 7.46461 10.4262 7.08418 10.0306C6.94677 9.88768 6.83041 9.72571 6.73776 9.54985C6.34878 8.81205 5.56343 7.80971 4.35898 7.80971H2.125C1.87663 7.80971 1.63821 7.85231 1.41667 7.9306V7.43581C1.41667 7.32587 1.44227 7.21736 1.49145 7.11904L3.78366 2.5346C3.90364 2.29463 4.14892 2.14305 4.41721 2.14305H12.5827C12.8511 2.14305 13.0963 2.29463 13.2164 2.5346L15.5085 7.11904C15.5577 7.21736 15.5833 7.32587 15.5833 7.43581V7.9306Z" fill="#675DFF"/>
</svg>
