<svg width="17" height="18" viewBox="0 0 17 18" fill="none" xmlns="http://www.w3.org/2000/svg">
<path fill-rule="evenodd" clip-rule="evenodd" d="M8.57417 12.7632C10.5685 12.7632 12.1852 11.1465 12.1852 9.15214C12.1852 7.15783 10.5685 5.54111 8.57417 5.54111C6.57985 5.54111 4.96313 7.15783 4.96313 9.15214C4.96313 11.1465 6.57985 12.7632 8.57417 12.7632ZM10.9815 9.15214C10.9815 10.4817 9.90369 11.5595 8.57417 11.5595C7.24465 11.5595 6.16681 10.4817 6.16681 9.15214C6.16681 7.82262 7.24465 6.74478 8.57417 6.74478C9.90369 6.74478 10.9815 7.82262 10.9815 9.15214Z" fill="#675DFF"/>
<path fill-rule="evenodd" clip-rule="evenodd" d="M0.148438 8.55004V9.75372C0.148438 10.6855 0.85416 11.4523 1.76022 11.549C1.83712 11.7677 1.92423 11.9814 2.02096 12.1898C1.42725 12.8992 1.46367 13.9572 2.13024 14.6238L2.98136 15.4749C3.63276 16.1263 4.65804 16.1759 5.3664 15.6238C5.62782 15.7536 5.8983 15.868 6.17663 15.966C6.27329 16.8721 7.04015 17.5779 7.97192 17.5779H9.1756C10.1071 17.5779 10.8739 16.8724 10.9708 15.9666C11.2237 15.8777 11.4702 15.7751 11.7092 15.6597C12.4153 16.1734 13.4096 16.1118 14.0465 15.4749L14.8976 14.6238C15.5344 13.9869 15.5961 12.9926 15.0825 12.2866C15.1977 12.0477 15.3001 11.8016 15.389 11.5489C16.2947 11.4518 16.9999 10.6851 16.9999 9.75372V8.55004C16.9999 7.61864 16.2947 6.85201 15.389 6.75494C15.291 6.4762 15.1764 6.20536 15.0464 5.94362C15.5981 5.23529 15.5484 4.21035 14.8972 3.55912L14.046 2.70799C13.3796 2.04158 12.3219 2.00502 11.6126 2.59828C11.4038 2.50141 11.1897 2.41418 10.9707 2.33718C10.8736 1.4316 10.1069 0.726379 9.1756 0.726379H7.97192C7.04033 0.726379 6.27353 1.43192 6.17669 2.3378C5.93078 2.42435 5.69099 2.52379 5.45817 2.6353C4.74916 2.00379 3.66176 2.02801 2.98179 2.70799L2.13065 3.55911C1.45068 4.2391 1.42645 5.3265 2.05798 6.03551C1.94635 6.26857 1.84682 6.50862 1.76022 6.75482C0.85416 6.85147 0.148438 7.61834 0.148438 8.55004ZM9.77744 2.5319C9.77744 2.19951 9.50799 1.93006 9.1756 1.93006H7.97192C7.63952 1.93006 7.37008 2.19951 7.37008 2.5319V2.76221C7.37008 3.04841 7.16744 3.29187 6.89258 3.37171C6.4657 3.49573 6.05834 3.66577 5.6763 3.87609C5.42558 4.01412 5.11015 3.98522 4.90777 3.78285L4.68404 3.55912C4.44901 3.32408 4.06795 3.32408 3.83291 3.55911L2.98179 4.41025C2.74675 4.64528 2.74675 5.02634 2.98179 5.26137L3.20553 5.48511C3.4079 5.68749 3.43679 6.00292 3.29877 6.25364C3.08833 6.63589 2.91822 7.04346 2.79419 7.47064C2.71438 7.74556 2.4709 7.9482 2.18466 7.9482H1.95395C1.62157 7.9482 1.35211 8.21771 1.35211 8.55004V9.75372C1.35211 10.0861 1.62157 10.3556 1.95395 10.3556H2.18466C2.4709 10.3556 2.71437 10.5583 2.79419 10.8331C2.9106 11.2341 3.06761 11.6178 3.26046 11.9795C3.39356 12.2291 3.36283 12.5401 3.16278 12.7401L2.98136 12.9216C2.74633 13.1566 2.74633 13.5376 2.98136 13.7727L3.8325 14.6238C4.06753 14.8588 4.44859 14.8588 4.68362 14.6238L4.83006 14.4774C5.03476 14.2726 5.35467 14.2457 5.60639 14.3886C6.00851 14.6171 6.43952 14.8005 6.89258 14.9321C7.16744 15.0119 7.37008 15.2554 7.37008 15.5416V15.7723C7.37008 16.1047 7.63952 16.3742 7.97192 16.3742H9.1756C9.50799 16.3742 9.77744 16.1047 9.77744 15.7723V15.5421C9.77744 15.2558 9.98013 15.0123 10.2551 14.9325C10.6825 14.8085 11.0904 14.6383 11.4729 14.4277C11.7236 14.2897 12.039 14.3186 12.2414 14.521L12.3442 14.6238C12.5792 14.8588 12.9603 14.8588 13.1953 14.6238L14.0465 13.7727C14.2815 13.5376 14.2815 13.1566 14.0465 12.9216L13.9437 12.8188C13.7413 12.6164 13.7124 12.3009 13.8504 12.0502C14.0609 11.6679 14.231 11.2604 14.355 10.8331C14.4348 10.5583 14.6783 10.3556 14.9646 10.3556H15.1944C15.5268 10.3556 15.7962 10.0861 15.7962 9.75372V8.55004C15.7962 8.21771 15.5268 7.9482 15.1944 7.9482H14.9646C14.6783 7.9482 14.4348 7.74556 14.355 7.47064C14.2234 7.01734 14.0399 6.58604 13.8113 6.18369C13.6683 5.93198 13.6953 5.61206 13.9 5.40737L14.046 5.26137C14.2811 5.02634 14.2811 4.64528 14.046 4.41025L13.1949 3.55911C12.9599 3.32408 12.5788 3.32408 12.3438 3.55911L12.1628 3.74007C11.9628 3.94013 11.6518 3.97087 11.4022 3.83776C11.0403 3.64479 10.6563 3.48771 10.2551 3.37126C9.98013 3.29148 9.77744 3.04798 9.77744 2.76172V2.5319Z" fill="#675DFF"/>
</svg>
